<svg xmlns="http://www.w3.org/2000/svg" xmlns:xlink="http://www.w3.org/1999/xlink" width="116.089" height="121.555" viewBox="0 0 116.089 121.555">
  <defs>
    <filter id="Path_4" x="0" y="0" width="116.089" height="121.555" filterUnits="userSpaceOnUse">
      <feOffset dy="10" input="SourceAlpha"/>
      <feGaussianBlur stdDeviation="10" result="blur"/>
      <feFlood flood-opacity="0.161"/>
      <feComposite operator="in" in2="blur"/>
      <feComposite in="SourceGraphic"/>
    </filter>
  </defs>
  <g id="handle-enable" transform="translate(32 22)">
    <g transform="matrix(1, 0, 0, 1, -32, -22)" filter="url(#Path_4)">
      <g id="Path_4-2" data-name="Path 4" transform="translate(31.5 21.49)" fill="#00a6e2">
        <path d="M 50.42403030395508 59.06000900268555 L 2.670360088348389 59.06000900268555 C 0.9222200512886047 59.06000900268555 -0.4999999105930328 57.63779067993164 -0.4999999105930328 55.8896484375 L -0.4999999105930328 26.54640960693359 C -0.4999999105930328 25.71306037902832 -0.1611999273300171 24.89631080627441 0.4295300841331482 24.30558013916016 L 24.30347061157227 0.4316398799419403 C 24.90596961975098 -0.1667701154947281 25.70169067382812 -0.4950001239776611 26.54647064208984 -0.4950001239776611 C 27.39253997802734 -0.4950001239776611 28.18758010864258 -0.1659101098775864 28.78512954711914 0.4316498935222626 L 52.6572380065918 24.30374717712402 C 53.24915313720703 24.88909721374512 53.58860015869141 25.70626068115234 53.58860015869141 26.54640960693359 L 53.58860015869141 55.8896484375 C 53.58860015869141 57.63779067993164 52.16897964477539 59.06000900268555 50.42403030395508 59.06000900268555 Z" stroke="none"/>
        <path d="M 50.42403030395508 58.06000900268555 C 51.61627960205078 58.06000900268555 52.58860015869141 57.08768844604492 52.58860015869141 55.8896484375 L 52.58860015869141 26.54640960693359 C 52.58860015869141 25.97343063354492 52.36288070678711 25.41781997680664 51.95196151733398 25.0126895904541 L 28.0780200958252 1.138749837875366 C 27.65552520751953 0.7162498831748962 27.10136032104492 0.5049998760223389 26.54647064208984 0.5049998760223389 C 25.9915828704834 0.5049998760223389 25.43597030639648 0.7162498831748962 25.01058006286621 1.138749837875366 L 1.136640071868896 25.0126895904541 C 0.7315101027488708 25.41781997680664 0.5000000596046448 25.97343063354492 0.5000000596046448 26.54640960693359 L 0.5000000596046448 55.8896484375 C 0.5000000596046448 57.08768844604492 1.472320079803467 58.06000900268555 2.670360088348389 58.06000900268555 L 50.42403030395508 58.06000900268555 M 50.42403030395508 60.06000900268555 L 2.670360088348389 60.06000900268555 C 0.3708200752735138 60.06000900268555 -1.49999988079071 58.18918991088867 -1.49999988079071 55.8896484375 L -1.49999988079071 26.54640960693359 C -1.49999988079071 25.4498291015625 -1.054439902305603 24.3753490447998 -0.2775699198246002 23.59848022460938 L 23.59637069702148 -0.2754601240158081 L 23.59877967834473 -0.2778701186180115 L 23.6011905670166 -0.2802801132202148 C 24.38987922668457 -1.063600063323975 25.43586921691895 -1.495000123977661 26.54647064208984 -1.495000123977661 C 27.65966033935547 -1.495000123977661 28.70582962036133 -1.061890125274658 29.49225044250488 -0.2754501104354858 L 53.36194229125977 23.59425354003906 C 54.14158630371094 24.36607551574707 54.58860015869141 25.44160079956055 54.58860015869141 26.54640960693359 L 54.58860015869141 55.8896484375 C 54.58860015869141 58.18918991088867 52.72037887573242 60.06000900268555 50.42403030395508 60.06000900268555 Z" stroke="none" fill="#e2e5e7"/>
      </g>
    </g>
  </g>
</svg>
