<svg id="ic-clock-hands_center" xmlns="http://www.w3.org/2000/svg" width="28" height="28" viewBox="0 0 28 28">
  <g id="Path_20" data-name="Path 20" fill="#fcb647">
    <path d="M 14 27 C 10.52756977081299 27 7.26298999786377 25.64776039123535 4.807610034942627 23.19239044189453 C 2.352240085601807 20.73700904846191 1 17.4724292755127 1 14 C 1 10.52756977081299 2.352240085601807 7.26298999786377 4.807610034942627 4.807610034942627 C 7.26298999786377 2.352240085601807 10.52756977081299 1 14 1 C 17.4724292755127 1 20.73700904846191 2.352240085601807 23.19239044189453 4.807610034942627 C 25.64776039123535 7.26298999786377 27 10.52756977081299 27 14 C 27 17.4724292755127 25.64776039123535 20.73700904846191 23.19239044189453 23.19239044189453 C 20.73700904846191 25.64776039123535 17.4724292755127 27 14 27 Z" stroke="none"/>
    <path d="M 14 2 C 10.79467964172363 2 7.781219482421875 3.248220443725586 5.514720916748047 5.514720916748047 C 3.248220443725586 7.781219482421875 2 10.79467964172363 2 14 C 2 17.2053108215332 3.248220443725586 20.21878051757812 5.514720916748047 22.48527908325195 C 7.781219482421875 24.75177955627441 10.79467964172363 26 14 26 C 17.2053108215332 26 20.21878051757812 24.75177955627441 22.48527908325195 22.48527908325195 C 24.75177955627441 20.21878051757812 26 17.2053108215332 26 14 C 26 10.79467964172363 24.75177955627441 7.781219482421875 22.48527908325195 5.514720916748047 C 20.21878051757812 3.248220443725586 17.2053108215332 2 14 2 M 14 0 C 21.73197937011719 0 28 6.268009185791016 28 14 C 28 21.73197937011719 21.73197937011719 28 14 28 C 6.268009185791016 28 0 21.73197937011719 0 14 C 0 6.268009185791016 6.268009185791016 0 14 0 Z" stroke="none" fill="#1b2f46"/>
  </g>
</svg>
